<svg width="46" height="15" viewBox="0 0 46 15" fill="none" xmlns="http://www.w3.org/2000/svg">
<path d="M6.77637 14C6.68262 13.8184 6.60059 13.5225 6.53027 13.1123C5.85059 13.8213 5.01855 14.1758 4.03418 14.1758C3.0791 14.1758 2.2998 13.9033 1.69629 13.3584C1.09277 12.8135 0.791016 12.1396 0.791016 11.3369C0.791016 10.3232 1.16602 9.54688 1.91602 9.00781C2.67188 8.46289 3.75 8.19043 5.15039 8.19043H6.45996V7.56641C6.45996 7.07422 6.32227 6.68164 6.04688 6.38867C5.77148 6.08984 5.35254 5.94043 4.79004 5.94043C4.30371 5.94043 3.90527 6.06348 3.59473 6.30957C3.28418 6.5498 3.12891 6.85742 3.12891 7.23242H0.993164C0.993164 6.71094 1.16602 6.22461 1.51172 5.77344C1.85742 5.31641 2.32617 4.95898 2.91797 4.70117C3.51562 4.44336 4.18066 4.31445 4.91309 4.31445C6.02637 4.31445 6.91406 4.5957 7.57617 5.1582C8.23828 5.71484 8.57812 6.5 8.5957 7.51367V11.8027C8.5957 12.6582 8.71582 13.3408 8.95605 13.8506V14H6.77637ZM4.42969 12.4619C4.85156 12.4619 5.24707 12.3594 5.61621 12.1543C5.99121 11.9492 6.27246 11.6738 6.45996 11.3281V9.53516H5.30859C4.51758 9.53516 3.92285 9.67285 3.52441 9.94824C3.12598 10.2236 2.92676 10.6133 2.92676 11.1172C2.92676 11.5273 3.06152 11.8555 3.33105 12.1016C3.60645 12.3418 3.97266 12.4619 4.42969 12.4619ZM19.1777 9.3418C19.1777 10.8184 18.8467 11.9932 18.1846 12.8662C17.5283 13.7393 16.623 14.1758 15.4688 14.1758C14.3555 14.1758 13.4883 13.7744 12.8672 12.9717L12.7617 14H10.8281V0.5H12.9639V5.4043C13.5791 4.67773 14.4082 4.31445 15.4512 4.31445C16.6113 4.31445 17.5225 4.74512 18.1846 5.60645C18.8467 6.46777 19.1777 7.67188 19.1777 9.21875V9.3418ZM17.042 9.15723C17.042 8.12598 16.8604 7.35254 16.4971 6.83691C16.1338 6.32129 15.6064 6.06348 14.915 6.06348C13.9893 6.06348 13.3389 6.46777 12.9639 7.27637V11.1963C13.3447 12.0225 14.001 12.4355 14.9326 12.4355C15.6006 12.4355 16.1162 12.1865 16.4795 11.6885C16.8428 11.1904 17.0303 10.4375 17.042 9.42969V9.15723ZM20.5752 9.15723C20.5752 8.22559 20.7598 7.3877 21.1289 6.64355C21.498 5.89355 22.0166 5.31934 22.6846 4.9209C23.3525 4.5166 24.1201 4.31445 24.9873 4.31445C26.2705 4.31445 27.3105 4.72754 28.1074 5.55371C28.9102 6.37988 29.3438 7.47559 29.4082 8.84082L29.417 9.3418C29.417 10.2793 29.2354 11.1172 28.8721 11.8555C28.5146 12.5938 27.999 13.165 27.3252 13.5693C26.6572 13.9736 25.8838 14.1758 25.0049 14.1758C23.6631 14.1758 22.5879 13.7305 21.7793 12.8398C20.9766 11.9434 20.5752 10.751 20.5752 9.2627V9.15723ZM22.7109 9.3418C22.7109 10.3203 22.9131 11.0879 23.3174 11.6445C23.7217 12.1953 24.2842 12.4707 25.0049 12.4707C25.7256 12.4707 26.2852 12.1895 26.6836 11.627C27.0879 11.0645 27.29 10.2412 27.29 9.15723C27.29 8.19629 27.082 7.43457 26.666 6.87207C26.2559 6.30957 25.6963 6.02832 24.9873 6.02832C24.29 6.02832 23.7363 6.30664 23.3262 6.86328C22.916 7.41406 22.7109 8.24023 22.7109 9.3418ZM36.9844 13.0684C36.3574 13.8066 35.4668 14.1758 34.3125 14.1758C33.2812 14.1758 32.499 13.874 31.9658 13.2705C31.4385 12.667 31.1748 11.7939 31.1748 10.6514V4.49023H33.3105V10.625C33.3105 11.832 33.8115 12.4355 34.8135 12.4355C35.8506 12.4355 36.5508 12.0635 36.9141 11.3193V4.49023H39.0498V14H37.0371L36.9844 13.0684ZM43.9014 2.17871V4.49023H45.5801V6.07227H43.9014V11.3809C43.9014 11.7441 43.9717 12.0078 44.1123 12.1719C44.2588 12.3301 44.5166 12.4092 44.8857 12.4092C45.1318 12.4092 45.3809 12.3799 45.6328 12.3213V13.9736C45.1465 14.1084 44.6777 14.1758 44.2266 14.1758C42.5859 14.1758 41.7656 13.2705 41.7656 11.46V6.07227H40.2012V4.49023H41.7656V2.17871H43.9014Z" fill="black"/>
</svg>
