<svg width="34" height="18" viewBox="0 0 34 18" fill="none" xmlns="http://www.w3.org/2000/svg">
<path d="M8.43945 9.3418C8.43945 10.8184 8.1084 11.9932 7.44629 12.8662C6.79004 13.7393 5.88477 14.1758 4.73047 14.1758C3.61719 14.1758 2.75 13.7744 2.12891 12.9717L2.02344 14H0.0898438V0.5H2.22559V5.4043C2.84082 4.67773 3.66992 4.31445 4.71289 4.31445C5.87305 4.31445 6.78418 4.74512 7.44629 5.60645C8.1084 6.46777 8.43945 7.67188 8.43945 9.21875V9.3418ZM6.30371 9.15723C6.30371 8.12598 6.12207 7.35254 5.75879 6.83691C5.39551 6.32129 4.86816 6.06348 4.17676 6.06348C3.25098 6.06348 2.60059 6.46777 2.22559 7.27637V11.1963C2.60645 12.0225 3.2627 12.4355 4.19434 12.4355C4.8623 12.4355 5.37793 12.1865 5.74121 11.6885C6.10449 11.1904 6.29199 10.4375 6.30371 9.42969V9.15723ZM12.5088 14H10.373V0.5H12.5088V14ZM14.4424 9.15723C14.4424 8.22559 14.627 7.3877 14.9961 6.64355C15.3652 5.89355 15.8838 5.31934 16.5518 4.9209C17.2197 4.5166 17.9873 4.31445 18.8545 4.31445C20.1377 4.31445 21.1777 4.72754 21.9746 5.55371C22.7773 6.37988 23.2109 7.47559 23.2754 8.84082L23.2842 9.3418C23.2842 10.2793 23.1025 11.1172 22.7393 11.8555C22.3818 12.5938 21.8662 13.165 21.1924 13.5693C20.5244 13.9736 19.751 14.1758 18.8721 14.1758C17.5303 14.1758 16.4551 13.7305 15.6465 12.8398C14.8438 11.9434 14.4424 10.751 14.4424 9.2627V9.15723ZM16.5781 9.3418C16.5781 10.3203 16.7803 11.0879 17.1846 11.6445C17.5889 12.1953 18.1514 12.4707 18.8721 12.4707C19.5928 12.4707 20.1523 12.1895 20.5508 11.627C20.9551 11.0645 21.1572 10.2412 21.1572 9.15723C21.1572 8.19629 20.9492 7.43457 20.5332 6.87207C20.123 6.30957 19.5635 6.02832 18.8545 6.02832C18.1572 6.02832 17.6035 6.30664 17.1934 6.86328C16.7832 7.41406 16.5781 8.24023 16.5781 9.3418ZM24.7168 9.1748C24.7168 7.69824 25.0625 6.52051 25.7539 5.6416C26.4512 4.75684 27.374 4.31445 28.5225 4.31445C29.6064 4.31445 30.459 4.69238 31.0801 5.44824L31.1768 4.49023H33.1016V13.71C33.1016 14.958 32.7119 15.9424 31.9326 16.6631C31.1592 17.3838 30.1133 17.7441 28.7949 17.7441C28.0977 17.7441 27.415 17.5977 26.7471 17.3047C26.085 17.0176 25.5811 16.6396 25.2354 16.1709L26.2461 14.8877C26.9023 15.667 27.7109 16.0566 28.6719 16.0566C29.3809 16.0566 29.9404 15.8633 30.3506 15.4766C30.7607 15.0957 30.9658 14.5332 30.9658 13.7891V13.1475C30.3506 13.833 29.5303 14.1758 28.5049 14.1758C27.3916 14.1758 26.4805 13.7334 25.7715 12.8486C25.0684 11.9639 24.7168 10.7393 24.7168 9.1748ZM26.8438 9.35938C26.8438 10.3145 27.0371 11.0674 27.4238 11.6182C27.8164 12.1631 28.3584 12.4355 29.0498 12.4355C29.9111 12.4355 30.5498 12.0664 30.9658 11.3281V7.14453C30.5615 6.42383 29.9287 6.06348 29.0674 6.06348C28.3643 6.06348 27.8164 6.3418 27.4238 6.89844C27.0371 7.45508 26.8438 8.27539 26.8438 9.35938Z" fill="black"/>
</svg>
