<svg width="84" height="13" viewBox="0 0 84 13" fill="none" xmlns="http://www.w3.org/2000/svg">
<path d="M5.00098 10.4707C5.53418 10.4707 5.97656 10.3154 6.32812 10.0049C6.67969 9.69434 6.86719 9.31055 6.89062 8.85352H8.90332C8.87988 9.44531 8.69531 9.99902 8.34961 10.5146C8.00391 11.0244 7.53516 11.4287 6.94336 11.7275C6.35156 12.0264 5.71289 12.1758 5.02734 12.1758C3.69727 12.1758 2.64258 11.7451 1.86328 10.8838C1.08398 10.0225 0.694336 8.83301 0.694336 7.31543V7.0957C0.694336 5.64844 1.08105 4.49121 1.85449 3.62402C2.62793 2.75098 3.68262 2.31445 5.01855 2.31445C6.14941 2.31445 7.06934 2.64551 7.77832 3.30762C8.49316 3.96387 8.86816 4.82812 8.90332 5.90039H6.89062C6.86719 5.35547 6.67969 4.90723 6.32812 4.55566C5.98242 4.2041 5.54004 4.02832 5.00098 4.02832C4.30957 4.02832 3.77637 4.28027 3.40137 4.78418C3.02637 5.28223 2.83594 6.04102 2.83008 7.06055V7.40332C2.83008 8.43457 3.01465 9.20508 3.38379 9.71484C3.75879 10.2188 4.29785 10.4707 5.00098 10.4707ZM10.1162 7.15723C10.1162 6.22559 10.3008 5.3877 10.6699 4.64355C11.0391 3.89355 11.5576 3.31934 12.2256 2.9209C12.8936 2.5166 13.6611 2.31445 14.5283 2.31445C15.8115 2.31445 16.8516 2.72754 17.6484 3.55371C18.4512 4.37988 18.8848 5.47559 18.9492 6.84082L18.958 7.3418C18.958 8.2793 18.7764 9.11719 18.4131 9.85547C18.0557 10.5938 17.54 11.165 16.8662 11.5693C16.1982 11.9736 15.4248 12.1758 14.5459 12.1758C13.2041 12.1758 12.1289 11.7305 11.3203 10.8398C10.5176 9.94336 10.1162 8.75098 10.1162 7.2627V7.15723ZM12.252 7.3418C12.252 8.32031 12.4541 9.08789 12.8584 9.64453C13.2627 10.1953 13.8252 10.4707 14.5459 10.4707C15.2666 10.4707 15.8262 10.1895 16.2246 9.62695C16.6289 9.06445 16.8311 8.24121 16.8311 7.15723C16.8311 6.19629 16.623 5.43457 16.207 4.87207C15.7969 4.30957 15.2373 4.02832 14.5283 4.02832C13.8311 4.02832 13.2773 4.30664 12.8672 4.86328C12.457 5.41406 12.252 6.24023 12.252 7.3418ZM22.7461 2.49023L22.8076 3.58887C23.5107 2.73926 24.4336 2.31445 25.5762 2.31445C27.5566 2.31445 28.5645 3.44824 28.5996 5.71582V12H26.4639V5.83887C26.4639 5.23535 26.332 4.79004 26.0684 4.50293C25.8105 4.20996 25.3857 4.06348 24.7939 4.06348C23.9326 4.06348 23.291 4.45312 22.8691 5.23242V12H20.7334V2.49023H22.7461ZM33.46 0.178711V2.49023H35.1387V4.07227H33.46V9.38086C33.46 9.74414 33.5303 10.0078 33.6709 10.1719C33.8174 10.3301 34.0752 10.4092 34.4443 10.4092C34.6904 10.4092 34.9395 10.3799 35.1914 10.3213V11.9736C34.7051 12.1084 34.2363 12.1758 33.7852 12.1758C32.1445 12.1758 31.3242 11.2705 31.3242 9.45996V4.07227H29.7598V2.49023H31.3242V0.178711H33.46ZM42.46 12C42.3662 11.8184 42.2842 11.5225 42.2139 11.1123C41.5342 11.8213 40.7021 12.1758 39.7178 12.1758C38.7627 12.1758 37.9834 11.9033 37.3799 11.3584C36.7764 10.8135 36.4746 10.1396 36.4746 9.33691C36.4746 8.32324 36.8496 7.54688 37.5996 7.00781C38.3555 6.46289 39.4336 6.19043 40.834 6.19043H42.1436V5.56641C42.1436 5.07422 42.0059 4.68164 41.7305 4.38867C41.4551 4.08984 41.0361 3.94043 40.4736 3.94043C39.9873 3.94043 39.5889 4.06348 39.2783 4.30957C38.9678 4.5498 38.8125 4.85742 38.8125 5.23242H36.6768C36.6768 4.71094 36.8496 4.22461 37.1953 3.77344C37.541 3.31641 38.0098 2.95898 38.6016 2.70117C39.1992 2.44336 39.8643 2.31445 40.5967 2.31445C41.71 2.31445 42.5977 2.5957 43.2598 3.1582C43.9219 3.71484 44.2617 4.5 44.2793 5.51367V9.80273C44.2793 10.6582 44.3994 11.3408 44.6396 11.8506V12H42.46ZM40.1133 10.4619C40.5352 10.4619 40.9307 10.3594 41.2998 10.1543C41.6748 9.94922 41.9561 9.67383 42.1436 9.32812V7.53516H40.9922C40.2012 7.53516 39.6064 7.67285 39.208 7.94824C38.8096 8.22363 38.6104 8.61328 38.6104 9.11719C38.6104 9.52734 38.7451 9.85547 39.0146 10.1016C39.29 10.3418 39.6562 10.4619 40.1133 10.4619ZM50.4229 10.4707C50.9561 10.4707 51.3984 10.3154 51.75 10.0049C52.1016 9.69434 52.2891 9.31055 52.3125 8.85352H54.3252C54.3018 9.44531 54.1172 9.99902 53.7715 10.5146C53.4258 11.0244 52.957 11.4287 52.3652 11.7275C51.7734 12.0264 51.1348 12.1758 50.4492 12.1758C49.1191 12.1758 48.0645 11.7451 47.2852 10.8838C46.5059 10.0225 46.1162 8.83301 46.1162 7.31543V7.0957C46.1162 5.64844 46.5029 4.49121 47.2764 3.62402C48.0498 2.75098 49.1045 2.31445 50.4404 2.31445C51.5713 2.31445 52.4912 2.64551 53.2002 3.30762C53.915 3.96387 54.29 4.82812 54.3252 5.90039H52.3125C52.2891 5.35547 52.1016 4.90723 51.75 4.55566C51.4043 4.2041 50.9619 4.02832 50.4229 4.02832C49.7314 4.02832 49.1982 4.28027 48.8232 4.78418C48.4482 5.28223 48.2578 6.04102 48.252 7.06055V7.40332C48.252 8.43457 48.4365 9.20508 48.8057 9.71484C49.1807 10.2188 49.7197 10.4707 50.4229 10.4707ZM58.6143 0.178711V2.49023H60.293V4.07227H58.6143V9.38086C58.6143 9.74414 58.6846 10.0078 58.8252 10.1719C58.9717 10.3301 59.2295 10.4092 59.5986 10.4092C59.8447 10.4092 60.0938 10.3799 60.3457 10.3213V11.9736C59.8594 12.1084 59.3906 12.1758 58.9395 12.1758C57.2988 12.1758 56.4785 11.2705 56.4785 9.45996V4.07227H54.9141V2.49023H56.4785V0.178711H58.6143ZM72.1758 11.0684C71.5488 11.8066 70.6582 12.1758 69.5039 12.1758C68.4727 12.1758 67.6904 11.874 67.1572 11.2705C66.6299 10.667 66.3662 9.79395 66.3662 8.65137V2.49023H68.502V8.625C68.502 9.83203 69.0029 10.4355 70.0049 10.4355C71.042 10.4355 71.7422 10.0635 72.1055 9.31934V2.49023H74.2412V12H72.2285L72.1758 11.0684ZM81.7471 9.41602C81.7471 9.03516 81.5889 8.74512 81.2725 8.5459C80.9619 8.34668 80.4434 8.1709 79.7168 8.01855C78.9902 7.86621 78.3838 7.67285 77.8975 7.43848C76.8311 6.92285 76.2979 6.17578 76.2979 5.19727C76.2979 4.37695 76.6436 3.69141 77.335 3.14062C78.0264 2.58984 78.9053 2.31445 79.9717 2.31445C81.1084 2.31445 82.0254 2.5957 82.7227 3.1582C83.4258 3.7207 83.7773 4.4502 83.7773 5.34668H81.6416C81.6416 4.93652 81.4893 4.59668 81.1846 4.32715C80.8799 4.05176 80.4756 3.91406 79.9717 3.91406C79.5029 3.91406 79.1191 4.02246 78.8203 4.23926C78.5273 4.45605 78.3809 4.74609 78.3809 5.10938C78.3809 5.4375 78.5186 5.69238 78.7939 5.87402C79.0693 6.05566 79.626 6.24023 80.4639 6.42773C81.3018 6.60938 81.958 6.8291 82.4326 7.08691C82.9131 7.33887 83.2676 7.64355 83.4961 8.00098C83.7305 8.3584 83.8477 8.79199 83.8477 9.30176C83.8477 10.1572 83.4932 10.8516 82.7842 11.3848C82.0752 11.9121 81.1465 12.1758 79.998 12.1758C79.2188 12.1758 78.5244 12.0352 77.915 11.7539C77.3057 11.4727 76.8311 11.0859 76.4912 10.5938C76.1514 10.1016 75.9814 9.57129 75.9814 9.00293H78.0557C78.085 9.50684 78.2754 9.89648 78.627 10.1719C78.9785 10.4414 79.4443 10.5762 80.0244 10.5762C80.5869 10.5762 81.0146 10.4707 81.3076 10.2598C81.6006 10.043 81.7471 9.76172 81.7471 9.41602Z" fill="black"/>
</svg>
