<svg width="67" height="15" viewBox="0 0 67 15" fill="none" xmlns="http://www.w3.org/2000/svg">
<path d="M6.4248 11.416C6.4248 11.0352 6.2666 10.7451 5.9502 10.5459C5.63965 10.3467 5.12109 10.1709 4.39453 10.0186C3.66797 9.86621 3.06152 9.67285 2.5752 9.43848C1.50879 8.92285 0.975586 8.17578 0.975586 7.19727C0.975586 6.37695 1.32129 5.69141 2.0127 5.14062C2.7041 4.58984 3.58301 4.31445 4.64941 4.31445C5.78613 4.31445 6.70312 4.5957 7.40039 5.1582C8.10352 5.7207 8.45508 6.4502 8.45508 7.34668H6.31934C6.31934 6.93652 6.16699 6.59668 5.8623 6.32715C5.55762 6.05176 5.15332 5.91406 4.64941 5.91406C4.18066 5.91406 3.79688 6.02246 3.49805 6.23926C3.20508 6.45605 3.05859 6.74609 3.05859 7.10938C3.05859 7.4375 3.19629 7.69238 3.47168 7.87402C3.74707 8.05566 4.30371 8.24023 5.1416 8.42773C5.97949 8.60938 6.63574 8.8291 7.11035 9.08691C7.59082 9.33887 7.94531 9.64355 8.17383 10.001C8.4082 10.3584 8.52539 10.792 8.52539 11.3018C8.52539 12.1572 8.1709 12.8516 7.46191 13.3848C6.75293 13.9121 5.82422 14.1758 4.67578 14.1758C3.89648 14.1758 3.20215 14.0352 2.59277 13.7539C1.9834 13.4727 1.50879 13.0859 1.16895 12.5938C0.829102 12.1016 0.65918 11.5713 0.65918 11.0029H2.7334C2.7627 11.5068 2.95312 11.8965 3.30469 12.1719C3.65625 12.4414 4.12207 12.5762 4.70215 12.5762C5.26465 12.5762 5.69238 12.4707 5.98535 12.2598C6.27832 12.043 6.4248 11.7617 6.4248 11.416ZM14.5811 14.1758C13.2275 14.1758 12.1289 13.751 11.2852 12.9014C10.4473 12.0459 10.0283 10.9092 10.0283 9.49121V9.22754C10.0283 8.27832 10.21 7.43164 10.5732 6.6875C10.9424 5.9375 11.458 5.35449 12.1201 4.93848C12.7822 4.52246 13.5205 4.31445 14.335 4.31445C15.6299 4.31445 16.6289 4.72754 17.332 5.55371C18.041 6.37988 18.3955 7.54883 18.3955 9.06055V9.92188H12.1816C12.2461 10.707 12.5068 11.3281 12.9639 11.7852C13.4268 12.2422 14.0068 12.4707 14.7041 12.4707C15.6826 12.4707 16.4795 12.0752 17.0947 11.2842L18.2461 12.3828C17.8652 12.9512 17.3555 13.3936 16.7168 13.71C16.084 14.0205 15.3721 14.1758 14.5811 14.1758ZM14.3262 6.02832C13.7402 6.02832 13.2656 6.2334 12.9023 6.64355C12.5449 7.05371 12.3164 7.625 12.2168 8.35742H16.2861V8.19922C16.2393 7.48438 16.0488 6.94531 15.7148 6.58203C15.3809 6.21289 14.918 6.02832 14.3262 6.02832ZM25.04 6.44141C24.7588 6.39453 24.4688 6.37109 24.1699 6.37109C23.1914 6.37109 22.5322 6.74609 22.1924 7.49609V14H20.0566V4.49023H22.0957L22.1484 5.55371C22.6641 4.72754 23.3789 4.31445 24.293 4.31445C24.5977 4.31445 24.8496 4.35547 25.0488 4.4375L25.04 6.44141ZM29.9004 11.293L31.9131 4.49023H34.1191L30.8232 14H28.9688L25.6465 4.49023H27.8613L29.9004 11.293ZM37.7314 14H35.5957V4.49023H37.7314V14ZM35.4639 2.02051C35.4639 1.69238 35.5664 1.41992 35.7715 1.20312C35.9824 0.986328 36.2812 0.87793 36.668 0.87793C37.0547 0.87793 37.3535 0.986328 37.5645 1.20312C37.7754 1.41992 37.8809 1.69238 37.8809 2.02051C37.8809 2.34277 37.7754 2.6123 37.5645 2.8291C37.3535 3.04004 37.0547 3.14551 36.668 3.14551C36.2812 3.14551 35.9824 3.04004 35.7715 2.8291C35.5664 2.6123 35.4639 2.34277 35.4639 2.02051ZM43.9717 12.4707C44.5049 12.4707 44.9473 12.3154 45.2988 12.0049C45.6504 11.6943 45.8379 11.3105 45.8613 10.8535H47.874C47.8506 11.4453 47.666 11.999 47.3203 12.5146C46.9746 13.0244 46.5059 13.4287 45.9141 13.7275C45.3223 14.0264 44.6836 14.1758 43.998 14.1758C42.668 14.1758 41.6133 13.7451 40.834 12.8838C40.0547 12.0225 39.665 10.833 39.665 9.31543V9.0957C39.665 7.64844 40.0518 6.49121 40.8252 5.62402C41.5986 4.75098 42.6533 4.31445 43.9893 4.31445C45.1201 4.31445 46.04 4.64551 46.749 5.30762C47.4639 5.96387 47.8389 6.82812 47.874 7.90039H45.8613C45.8379 7.35547 45.6504 6.90723 45.2988 6.55566C44.9531 6.2041 44.5107 6.02832 43.9717 6.02832C43.2803 6.02832 42.7471 6.28027 42.3721 6.78418C41.9971 7.28223 41.8066 8.04102 41.8008 9.06055V9.40332C41.8008 10.4346 41.9854 11.2051 42.3545 11.7148C42.7295 12.2188 43.2686 12.4707 43.9717 12.4707ZM53.6748 14.1758C52.3213 14.1758 51.2227 13.751 50.3789 12.9014C49.541 12.0459 49.1221 10.9092 49.1221 9.49121V9.22754C49.1221 8.27832 49.3037 7.43164 49.667 6.6875C50.0361 5.9375 50.5518 5.35449 51.2139 4.93848C51.876 4.52246 52.6143 4.31445 53.4287 4.31445C54.7236 4.31445 55.7227 4.72754 56.4258 5.55371C57.1348 6.37988 57.4893 7.54883 57.4893 9.06055V9.92188H51.2754C51.3398 10.707 51.6006 11.3281 52.0576 11.7852C52.5205 12.2422 53.1006 12.4707 53.7979 12.4707C54.7764 12.4707 55.5732 12.0752 56.1885 11.2842L57.3398 12.3828C56.959 12.9512 56.4492 13.3936 55.8105 13.71C55.1777 14.0205 54.4658 14.1758 53.6748 14.1758ZM53.4199 6.02832C52.834 6.02832 52.3594 6.2334 51.9961 6.64355C51.6387 7.05371 51.4102 7.625 51.3105 8.35742H55.3799V8.19922C55.333 7.48438 55.1426 6.94531 54.8086 6.58203C54.4746 6.21289 54.0117 6.02832 53.4199 6.02832ZM64.4854 11.416C64.4854 11.0352 64.3271 10.7451 64.0107 10.5459C63.7002 10.3467 63.1816 10.1709 62.4551 10.0186C61.7285 9.86621 61.1221 9.67285 60.6357 9.43848C59.5693 8.92285 59.0361 8.17578 59.0361 7.19727C59.0361 6.37695 59.3818 5.69141 60.0732 5.14062C60.7646 4.58984 61.6436 4.31445 62.71 4.31445C63.8467 4.31445 64.7637 4.5957 65.4609 5.1582C66.1641 5.7207 66.5156 6.4502 66.5156 7.34668H64.3799C64.3799 6.93652 64.2275 6.59668 63.9229 6.32715C63.6182 6.05176 63.2139 5.91406 62.71 5.91406C62.2412 5.91406 61.8574 6.02246 61.5586 6.23926C61.2656 6.45605 61.1191 6.74609 61.1191 7.10938C61.1191 7.4375 61.2568 7.69238 61.5322 7.87402C61.8076 8.05566 62.3643 8.24023 63.2021 8.42773C64.04 8.60938 64.6963 8.8291 65.1709 9.08691C65.6514 9.33887 66.0059 9.64355 66.2344 10.001C66.4688 10.3584 66.5859 10.792 66.5859 11.3018C66.5859 12.1572 66.2314 12.8516 65.5225 13.3848C64.8135 13.9121 63.8848 14.1758 62.7363 14.1758C61.957 14.1758 61.2627 14.0352 60.6533 13.7539C60.0439 13.4727 59.5693 13.0859 59.2295 12.5938C58.8896 12.1016 58.7197 11.5713 58.7197 11.0029H60.7939C60.8232 11.5068 61.0137 11.8965 61.3652 12.1719C61.7168 12.4414 62.1826 12.5762 62.7627 12.5762C63.3252 12.5762 63.7529 12.4707 64.0459 12.2598C64.3389 12.043 64.4854 11.7617 64.4854 11.416Z" fill="black"/>
</svg>
